REM DIRINDEX 1\2,1\4,1\3\5,1\3\6,1\3\7
REM DIRNAME cjc081,folder01,folder02,folder03,folder04,folder05,folder06
TITLE ""
FILE "CD1Track07.mp3" MP3
  TRACK 01 AUDIO
    TITLE "0:"
    INDEX 01 00:00:00
  TRACK 02 AUDIO
    TITLE "5:cjc081_0081"
    INDEX 01 00:00:25
  TRACK 03 AUDIO
    TITLE "0:"
    INDEX 01 00:01:36
  TRACK 04 AUDIO
    TITLE "6:cjc081_0082"
    INDEX 01 00:02:04
  TRACK 05 AUDIO
    TITLE "0:"
    INDEX 01 00:06:45
  TRACK 06 AUDIO
    TITLE "5:cjc081_0083"
    INDEX 01 00:07:17
  TRACK 07 AUDIO
    TITLE "0:"
    INDEX 01 00:08:48
  TRACK 08 AUDIO
    TITLE "6:cjc081_0084"
    INDEX 01 00:09:18
  TRACK 09 AUDIO
    TITLE "0:"
    INDEX 01 00:10:57
  TRACK 10 AUDIO
    TITLE "5:cjc081_0085"
    INDEX 01 00:11:23
  TRACK 11 AUDIO
    TITLE "0:"
    INDEX 01 00:12:42
  TRACK 12 AUDIO
    TITLE "6:cjc081_0086"
    INDEX 01 00:13:06
  TRACK 13 AUDIO
    TITLE "0:"
    INDEX 01 00:14:45
  TRACK 14 AUDIO
    TITLE "5:cjc081_0087"
    INDEX 01 00:15:11
  TRACK 15 AUDIO
    TITLE "0:"
    INDEX 01 00:16:34
  TRACK 16 AUDIO
    TITLE "6:cjc081_0088"
    INDEX 01 00:17:04
  TRACK 17 AUDIO
    TITLE "0:"
    INDEX 01 00:18:07
  TRACK 18 AUDIO
    TITLE "5:cjc081_0089"
    INDEX 01 00:18:52
  TRACK 19 AUDIO
    TITLE "0:"
    INDEX 01 00:20:12
  TRACK 20 AUDIO
    TITLE "6:cjc081_0090"
    INDEX 01 00:20:57
  TRACK 21 AUDIO
    TITLE "0:"
    INDEX 01 00:22:07
  TRACK 22 AUDIO
    TITLE "5:cjc081_0091"
    INDEX 01 00:22:52
  TRACK 23 AUDIO
    TITLE "0:"
    INDEX 01 00:23:67
  TRACK 24 AUDIO
    TITLE "6:cjc081_0092"
    INDEX 01 00:24:37
  TRACK 25 AUDIO
    TITLE "0:"
    INDEX 01 00:26:69
  TRACK 26 AUDIO
    TITLE "5:cjc081_0093"
    INDEX 01 00:27:39
  TRACK 27 AUDIO
    TITLE "0:"
    INDEX 01 00:28:57
  TRACK 28 AUDIO
    TITLE "6:cjc081_0094"
    INDEX 01 00:29:31
  TRACK 29 AUDIO
    TITLE "0:"
    INDEX 01 00:31:06
  TRACK 30 AUDIO
    TITLE "5:cjc081_0095"
    INDEX 01 00:31:59
  TRACK 31 AUDIO
    TITLE "0:"
    INDEX 01 00:33:03
  TRACK 32 AUDIO
    TITLE "6:cjc081_0096"
    INDEX 01 00:33:50
  TRACK 33 AUDIO
    TITLE "0:"
    INDEX 01 00:34:69
  TRACK 34 AUDIO
    TITLE "5:cjc081_0097"
    INDEX 01 00:35:41
  TRACK 35 AUDIO
    TITLE "0:"
    INDEX 01 00:36:72
  TRACK 36 AUDIO
    TITLE "6:cjc081_0098"
    INDEX 01 00:37:42
  TRACK 37 AUDIO
    TITLE "0:"
    INDEX 01 00:38:57
  TRACK 38 AUDIO
    TITLE "5:cjc081_0099"
    INDEX 01 00:39:25
  TRACK 39 AUDIO
    TITLE "0:"
    INDEX 01 00:40:52
  TRACK 40 AUDIO
    TITLE "6:cjc081_0100"
    INDEX 01 00:41:22
  TRACK 41 AUDIO
    TITLE "0:"
    INDEX 01 00:43:46
  TRACK 42 AUDIO
    TITLE "5:cjc081_0101"
    INDEX 01 00:44:11
  TRACK 43 AUDIO
    TITLE "0:"
    INDEX 01 00:45:35
  TRACK 44 AUDIO
    TITLE "6:cjc081_0102"
    INDEX 01 00:46:07
  TRACK 45 AUDIO
    TITLE "0:"
    INDEX 01 00:48:16
  TRACK 46 AUDIO
    TITLE "5:cjc081_0103"
    INDEX 01 00:48:57
  TRACK 47 AUDIO
    TITLE "0:"
    INDEX 01 00:50:07
  TRACK 48 AUDIO
    TITLE "6:cjc081_0104"
    INDEX 01 00:50:54
  TRACK 49 AUDIO
    TITLE "0:"
    INDEX 01 00:54:48
  TRACK 50 AUDIO
    TITLE "5:cjc081_0105"
    INDEX 01 00:55:16
  TRACK 51 AUDIO
    TITLE "0:"
    INDEX 01 00:56:37
  TRACK 52 AUDIO
    TITLE "6:cjc081_0106"
    INDEX 01 00:57:13
  TRACK 53 AUDIO
    TITLE "0:"
    INDEX 01 00:59:41
  TRACK 54 AUDIO
    TITLE "5:cjc081_0107"
    INDEX 01 01:00:12
  TRACK 55 AUDIO
    TITLE "0:"
    INDEX 01 01:01:33
  TRACK 56 AUDIO
    TITLE "6:cjc081_0108"
    INDEX 01 01:01:74
  TRACK 57 AUDIO
    TITLE "0:"
    INDEX 01 01:03:18
  TRACK 58 AUDIO
    TITLE "5:cjc081_0109"
    INDEX 01 01:03:65
  TRACK 59 AUDIO
    TITLE "0:"
    INDEX 01 01:05:13
  TRACK 60 AUDIO
    TITLE "6:cjc081_0110"
    INDEX 01 01:05:58
  TRACK 61 AUDIO
    TITLE "0:"
    INDEX 01 01:07:06
  TRACK 62 AUDIO
    TITLE "7:cjc081_0111"
    INDEX 01 01:08:44
  TRACK 63 AUDIO
    TITLE "0:"
    INDEX 01 01:18:66
